<?xml version="1.0" standalone="no"?>
<!DOCTYPE svg PUBLIC "-//W3C//DTD SVG 20010904//EN"
 "http://www.w3.org/TR/2001/REC-SVG-20010904/DTD/svg10.dtd">
<svg version="1.0" xmlns="http://www.w3.org/2000/svg"
 width="700.000000pt" height="700.000000pt" viewBox="0 0 700.000000 700.000000"
 preserveAspectRatio="xMidYMid meet">
<metadata>
Created by potrace 1.14, written by Peter Selinger 2001-2017
</metadata>
<g transform="translate(0.000000,700.000000) scale(0.100000,-0.100000)"
fill="#000000" stroke="none">
<path d="M0 3500 l0 -3500 3325 0 3325 0 0 3500 0 3500 -3325 0 -3325 0 0
-3500z m3718 2789 c158 -40 297 -123 419 -252 89 -94 154 -203 195 -327 26
-82 31 -114 36 -232 6 -175 -16 -283 -88 -427 -321 -641 -1238 -641 -1560 1
-71 142 -94 249 -88 425 4 120 9 150 36 233 106 322 383 552 722 601 80 11
239 1 328 -22z m78 -2164 c742 -109 1366 -616 1625 -1318 66 -179 109 -389
125 -609 l6 -98 -2052 0 -2052 0 6 98 c22 304 83 543 206 797 183 380 494 705
870 908 242 131 514 209 835 241 76 8 323 -3 431 -19z m1904 -2540 l0 -95
-2265 0 -2265 0 0 95 0 95 2265 0 2265 0 0 -95z m-2080 -400 l0 -95 -1225 0
-1225 0 0 95 0 95 1225 0 1225 0 0 -95z m1150 -410 l0 -95 -1800 0 -1800 0 0
95 0 95 1800 0 1800 0 0 -95z"/>
</g>
</svg>
